HIERARCHY
ROOT Pelvis
{
	OFFSET 0.000000 0.000000 0.000000
	CHANNELS 6 Xposition Yposition Zposition Xrotation Yrotation Zrotation
	JOINT LeftUpLeg_virtual
	{
		OFFSET 0.000000 0.000000 0.000000
		CHANNELS 3 Xrotation Yrotation Zrotation
		JOINT LeftUpLeg
		{
			OFFSET 18.735201 -5.666702 -4.541200
			CHANNELS 3 Xrotation Yrotation Zrotation
			JOINT LeftLeg
			{
				OFFSET -0.021200 -31.938179 0.493100
				CHANNELS 3 Xrotation Yrotation Zrotation
				JOINT LeftFoot
				{
					OFFSET 0.021200 -31.938179 -4.336299
					CHANNELS 3 Xrotation Yrotation Zrotation
					JOINT LeftToeBase
					{
						OFFSET 0.943001 -26.722000 15.023500
						CHANNELS 3 Xrotation Yrotation Zrotation
						End Site
						{
							OFFSET 0 0 0
						}
					}
				}
			}
		}
	}
	JOINT RightUpLeg_virtual
	{
		OFFSET 0.000000 0.000000 0.000000
		CHANNELS 3 Xrotation Yrotation Zrotation
		JOINT RightUpLeg
		{
			OFFSET -18.735201 -5.666702 -4.541200
			CHANNELS 3 Xrotation Yrotation Zrotation
			JOINT RightLeg
			{
				OFFSET 0.018946 -31.938133 0.493100
				CHANNELS 3 Xrotation Yrotation Zrotation
				JOINT RightFoot
				{
					OFFSET -0.018946 -31.938126 -4.336299
					CHANNELS 3 Xrotation Yrotation Zrotation
					JOINT RightToeBase
					{
						OFFSET -0.943001 -26.722004 15.023500
						CHANNELS 3 Xrotation Yrotation Zrotation
						End Site
						{
							OFFSET 0 0 0
						}
					}
				}
			}
		}
	}
	JOINT Hips_virtual
	{
		OFFSET 0.000000 0.000000 0.000000
		CHANNELS 3 Xrotation Yrotation Zrotation
		JOINT Hips
		{
			OFFSET -0.000000 -0.000000 -0.000000
			CHANNELS 3 Xrotation Yrotation Zrotation
			JOINT Spine
			{
				OFFSET 0.000000 10.199997 -0.299500
				CHANNELS 3 Xrotation Yrotation Zrotation
				JOINT Spine1
				{
					OFFSET 0.000000 11.900002 -1.516600
					CHANNELS 3 Xrotation Yrotation Zrotation
					JOINT Spine2
					{
						OFFSET 0.000000 13.600006 -2.842500
						CHANNELS 3 Xrotation Yrotation Zrotation
						JOINT Neck_virtual
						{
							OFFSET 0.000000 0.000000 0.000000
							CHANNELS 3 Xrotation Yrotation Zrotation
							JOINT Neck
							{
								OFFSET 0.000000 9.624100 -2.890100
								CHANNELS 3 Xrotation Yrotation Zrotation
								JOINT Head
								{
									OFFSET 0.000000 14.068802 -1.351900
									CHANNELS 3 Xrotation Yrotation Zrotation
									End Site
									{
										OFFSET 0 0 0
									}
								}
							}
						}
						JOINT LeftShoulder_virtual
						{
							OFFSET 0.000000 0.000000 0.000000
							CHANNELS 3 Xrotation Yrotation Zrotation
							JOINT LeftShoulder
							{
								OFFSET 15.263000 10.923401 -0.547700
								CHANNELS 3 Xrotation Yrotation Zrotation
								JOINT LeftArm
								{
									OFFSET 25.438599 -2.830597 -13.032500
									CHANNELS 3 Xrotation Yrotation Zrotation
									JOINT LeftForeArm
									{
										OFFSET 29.960503 0.000000 0.000000
										CHANNELS 3 Xrotation Yrotation Zrotation
										JOINT LeftHand
										{
											OFFSET 27.849251 0.000000 0.000000
											CHANNELS 3 Xrotation Yrotation Zrotation
											End Site
											{
												OFFSET 0 0 0
											}
										}
									}
								}
							}
						}
						JOINT RightShoulder_virtual
						{
							OFFSET 0.000000 0.000000 0.000000
							CHANNELS 3 Xrotation Yrotation Zrotation
							JOINT RightShoulder
							{
								OFFSET -15.263000 10.923401 -0.547700
								CHANNELS 3 Xrotation Yrotation Zrotation
								JOINT RightArm
								{
									OFFSET -25.438599 -2.830597 -13.032500
									CHANNELS 3 Xrotation Yrotation Zrotation
									JOINT RightForeArm
									{
										OFFSET -29.960503 0.000000 0.000000
										CHANNELS 3 Xrotation Yrotation Zrotation
										JOINT RightHand
										{
											OFFSET -27.849251 0.000000 0.000000
											CHANNELS 3 Xrotation Yrotation Zrotation
											End Site
											{
												OFFSET 0 0 0
											}
										}
									}
								}
							}
						}
					}
				}
			}
		}
	}
}
MOTION
Frames: 13
Frame Time: 0.03333333
-2.334698 86.491920 0.192200 0.000000 0.000000 0.000000 -0.851773 -43.755247 -0.391358 -43.159989 -1.590629 14.328379 43.172325 -6.684262 -1.528609 -7.396812 -6.165196 -11.996436 0.000000 0.000000 0.000000 12.720708 -36.980775 2.655223 -17.011153 -16.492054 -18.572237 36.077295 -3.790509 1.471283 -15.973762 -8.330487 11.325536 0.000000 0.000000 0.000000 1.408809 -11.765678 -0.535421 -13.483399 -39.603817 -6.434926 15.807897 9.662882 -2.962271 8.294660 6.335255 -2.182497 0.000000 0.000000 0.000000 6.508106 5.692216 -2.238691 0.497382 2.153604 -0.141609 0.000000 0.000000 0.000000 7.985157 6.770370 -3.028829 3.108651 5.092046 -8.719940 3.166725 -10.714993 -50.312287 3.902525 -42.684656 -2.197840 0.000000 0.000000 0.000000 8.656299 6.401626 -0.230276 1.203706 18.915080 8.098411 -9.703354 -5.366143 47.443488 -4.042984 33.886174 10.099364 0.000000 0.000000 0.000000 
-1.285628 86.260368 -1.621332 0.000000 0.000000 0.000000 -1.570188 -44.701150 -1.008596 -43.717558 -1.789185 13.879627 43.062652 -7.120795 -1.839486 -7.185559 -6.522443 -12.846616 0.000000 0.000000 0.000000 12.180866 -35.972219 2.293514 -17.357275 -16.110029 -18.550722 35.606316 -3.902305 1.776513 -16.458743 -8.617640 11.656058 0.000000 0.000000 0.000000 -0.594007 -10.502927 -2.132128 -4.864815 -43.314915 -1.228343 14.911584 9.540492 -3.198737 8.136600 6.372809 -2.205158 0.000000 0.000000 0.000000 5.893363 5.869373 -2.477039 0.214611 2.259853 0.151419 0.000000 0.000000 0.000000 7.534898 6.741490 -3.336662 2.786268 4.166113 -8.768824 1.016318 -10.161747 -51.603449 5.382927 -44.629685 -0.526281 0.000000 0.000000 0.000000 8.767290 6.862422 -0.880669 2.244413 17.852629 7.916889 -8.020130 -9.852149 46.851222 -5.329888 31.392977 11.230689 0.000000 0.000000 0.000000 
-0.684434 85.775299 -2.251202 0.000000 0.000000 0.000000 -1.775576 -44.029766 -0.578296 -44.374318 -1.810689 14.515317 43.595240 -7.075261 -2.192873 -6.437816 -6.381352 -13.461961 0.000000 0.000000 0.000000 13.037155 -35.179757 3.023045 -16.377771 -16.124965 -17.854579 36.033698 -3.910853 2.098052 -16.324588 -8.754971 12.088573 0.000000 0.000000 0.000000 0.827079 -8.766789 -1.187012 -4.088075 -43.498049 -1.253965 14.289705 9.108050 -3.478711 7.237557 6.354796 -2.235974 0.000000 0.000000 0.000000 5.987956 6.159077 -2.308985 -0.115257 2.286677 0.302874 0.000000 0.000000 0.000000 7.701180 7.492355 -3.519829 2.114042 3.267010 -10.007061 -0.185321 -7.756693 -54.145642 5.578064 -42.853324 -0.417382 0.000000 0.000000 0.000000 8.941651 7.468641 -1.286461 2.537603 18.025084 8.061828 -5.700510 -8.316982 48.476540 -5.046285 28.184648 10.797250 0.000000 0.000000 0.000000 
0.171736 85.201454 -2.632347 0.000000 0.000000 0.000000 -2.256977 -43.763812 -0.520619 -45.105579 -1.888145 14.829266 43.977460 -6.708978 -2.367413 -5.781038 -6.011590 -13.562960 0.000000 0.000000 0.000000 11.887164 -34.429297 2.542035 -17.589182 -15.643438 -17.914099 37.188044 -4.014925 2.166120 -15.738457 -8.814507 12.088229 0.000000 0.000000 0.000000 0.797240 -8.222329 -1.337959 -0.129471 -43.086322 0.512513 13.807624 8.219543 -2.659304 8.209571 6.219116 -2.841976 0.000000 0.000000 0.000000 6.041288 6.124070 -2.387918 -0.294579 2.514385 0.355563 0.000000 0.000000 0.000000 8.757186 7.017231 -3.953953 1.546245 1.359423 -9.744613 -2.617197 -10.663984 -54.697015 3.909781 -45.847392 -0.618771 0.000000 0.000000 0.000000 10.082494 7.672357 -1.883161 1.956081 16.384872 8.011936 -4.068506 -11.539752 48.944992 -4.966063 31.115740 11.618730 0.000000 0.000000 0.000000 
1.196631 84.239174 -3.331177 0.000000 0.000000 0.000000 -2.818585 -44.541460 -0.770176 -45.936041 -2.090763 14.858703 44.278433 -6.004120 -2.590032 -5.302615 -5.215198 -13.457440 0.000000 0.000000 0.000000 11.275513 -33.945726 2.194131 -18.592782 -15.310822 -18.185683 37.856115 -3.829052 2.096757 -15.760971 -8.560298 12.058427 0.000000 0.000000 0.000000 3.115571 -5.558428 -1.323501 0.571809 -41.009900 3.558375 14.819562 7.757019 -3.074899 8.420738 5.695854 -2.761445 0.000000 0.000000 0.000000 5.705765 5.868539 -2.469441 -0.837314 2.220456 0.482086 0.000000 0.000000 0.000000 8.952686 6.623533 -4.288747 1.495154 1.025374 -10.051978 0.305644 -10.036239 -52.461314 4.743361 -46.283916 0.594104 0.000000 0.000000 0.000000 10.527747 7.731782 -1.847604 2.203000 15.990496 8.701975 -2.628390 -11.841369 49.300374 -4.852989 32.631884 12.529691 0.000000 0.000000 0.000000 
2.397357 83.339142 -3.688602 0.000000 0.000000 0.000000 -3.291849 -46.881674 -0.226100 -46.966300 -3.074146 15.507974 45.448048 -6.113579 -2.817917 -4.185267 -5.302697 -13.991668 0.000000 0.000000 0.000000 10.086412 -34.300595 2.071906 -20.162339 -15.153038 -18.103640 39.744341 -4.303732 1.976919 -14.637259 -8.783712 11.539926 0.000000 0.000000 0.000000 1.615933 -11.749075 0.038941 5.977927 -36.907723 6.696782 14.037968 6.236382 -2.590932 9.165917 5.088771 -2.924846 0.000000 0.000000 0.000000 5.318108 5.803925 -2.237130 -0.798394 2.199948 0.659949 0.000000 0.000000 0.000000 9.389884 6.503409 -4.543575 1.668606 0.695548 -9.634611 -0.619083 -10.483956 -52.776168 4.838623 -48.036044 0.803388 0.000000 0.000000 0.000000 10.939888 7.628554 -2.062036 1.723019 15.575101 7.982186 -6.340421 -12.213609 47.931245 -4.796292 31.290736 12.334752 0.000000 0.000000 0.000000 
3.639336 81.395149 -3.922081 0.000000 0.000000 0.000000 -4.639602 -47.633186 -0.517253 -48.617710 -3.538841 15.745640 46.945652 -5.601834 -2.969917 -2.661796 -4.824299 -14.000002 0.000000 0.000000 0.000000 9.541691 -33.867227 2.086847 -21.126282 -14.874417 -18.001962 42.822831 -3.482246 2.342200 -12.992346 -8.076368 12.576575 0.000000 0.000000 0.000000 4.370606 -13.807482 1.433255 4.939037 -39.022117 4.848997 14.347386 6.055879 -2.609770 9.928915 4.236698 -2.967190 0.000000 0.000000 0.000000 4.915075 5.744569 -2.137859 -1.335780 2.058297 0.679109 0.000000 0.000000 0.000000 9.397366 6.278190 -4.481719 1.457085 -0.795580 -9.297863 0.201332 -10.223204 -51.073112 4.340711 -50.694893 0.806342 0.000000 0.000000 0.000000 10.765085 7.974835 -2.036484 1.185356 14.667138 7.705848 -4.699821 -11.187688 47.769950 -4.354905 32.788173 12.530237 0.000000 0.000000 0.000000 
3.177575 81.005302 -3.941216 0.000000 0.000000 0.000000 -4.578288 -49.322507 0.038479 -49.338858 -4.123171 16.393216 49.663941 -5.421345 -3.165400 -0.517393 -4.636595 -14.327024 0.000000 0.000000 0.000000 9.062941 -32.548959 1.696452 -22.045863 -14.317135 -18.315233 45.746995 -2.536129 1.714972 -11.525024 -6.738204 12.284390 0.000000 0.000000 0.000000 6.042664 -14.206923 1.776075 3.072035 -40.162288 4.939408 15.532946 5.113528 -2.905606 9.959105 3.858099 -3.598780 0.000000 0.000000 0.000000 5.113976 5.820990 -2.843132 -1.676721 1.816431 0.654513 0.000000 0.000000 0.000000 9.493289 5.571731 -5.084405 0.320845 -1.437755 -10.438771 2.778170 -6.231613 -51.919966 3.766184 -50.909583 1.190960 0.000000 0.000000 0.000000 11.718550 8.001069 -2.391894 0.522104 13.948435 9.104654 -3.029879 -9.240918 47.357964 -4.976589 36.438410 13.572908 0.000000 0.000000 0.000000 
4.161937 79.471123 -5.334175 0.000000 0.000000 0.000000 -5.811741 -50.212423 -0.293875 -51.017647 -4.505936 16.676697 51.987558 -5.033892 -3.223215 1.394934 -4.312347 -14.250045 0.000000 0.000000 0.000000 8.848528 -32.256033 1.769863 -23.108799 -14.092293 -18.507825 50.245074 -1.735362 1.172964 -9.239568 -5.528599 12.117067 0.000000 0.000000 0.000000 7.657932 -13.580799 3.055430 4.293384 -36.828841 7.470344 15.567756 4.478581 -3.363552 10.197282 3.490809 -3.731853 0.000000 0.000000 0.000000 4.983997 5.863621 -2.522120 -1.865716 1.852581 0.846495 0.000000 0.000000 0.000000 9.883211 5.204447 -5.240923 0.460544 -2.530944 -10.375227 2.853230 -6.478667 -50.775172 3.578631 -51.029330 1.274446 0.000000 0.000000 0.000000 11.860317 7.979013 -2.231054 0.536923 13.990957 9.383395 -4.417835 -9.064705 46.227017 -5.633876 37.891420 13.687187 0.000000 0.000000 0.000000 
4.965743 77.565704 -5.544861 0.000000 0.000000 0.000000 -7.729624 -51.057392 -0.878919 -53.098290 -5.053174 16.869430 54.224223 -4.799471 -3.565682 3.262911 -4.016489 -14.724500 0.000000 0.000000 0.000000 7.278797 -32.470006 0.511256 -25.228216 -13.565113 -19.661123 53.068541 -0.990118 0.678728 -7.935847 -4.504397 11.997889 0.000000 0.000000 0.000000 9.072804 -13.836853 3.749721 6.961590 -35.802540 7.915412 15.829440 3.703114 -3.365800 10.370511 3.002191 -3.862753 0.000000 0.000000 0.000000 4.723329 5.527757 -2.525744 -2.073579 1.886178 0.830791 0.000000 0.000000 0.000000 9.947590 4.542224 -5.263206 0.376422 -2.857969 -10.974533 2.850788 -5.836712 -49.438747 3.162618 -50.914607 1.383972 0.000000 0.000000 0.000000 12.360125 7.957770 -2.065211 0.572059 14.393736 9.192185 -5.045282 -7.886340 45.255812 -6.385722 42.547489 14.073312 0.000000 0.000000 0.000000 
5.545578 76.453827 -6.538094 0.000000 0.000000 0.000000 -8.933665 -52.287482 -1.174354 -54.502328 -5.598646 17.101528 56.188982 -4.614126 -3.837528 4.898107 -3.773957 -15.107989 0.000000 0.000000 0.000000 5.748324 -32.647003 -1.098192 -27.107349 -12.937843 -21.120962 55.691874 -0.227666 0.260756 -6.859120 -3.529620 12.037856 0.000000 0.000000 0.000000 10.258826 -13.292300 4.143949 10.901570 -34.630295 9.861311 16.363625 3.114009 -3.785507 10.741643 2.661060 -4.021555 0.000000 0.000000 0.000000 4.545015 5.158585 -2.393309 -2.214619 1.892168 0.934847 0.000000 0.000000 0.000000 10.370067 3.899810 -5.294495 0.282938 -3.707796 -11.079285 1.183886 -6.827461 -47.657542 3.408420 -52.336700 2.270954 0.000000 0.000000 0.000000 12.275228 7.842510 -1.981464 0.326807 14.482581 9.367826 -5.680400 -7.842285 44.300795 -7.929645 45.808675 14.933275 0.000000 0.000000 0.000000 
6.811255 74.752884 -7.334389 0.000000 0.000000 0.000000 -9.862762 -54.118102 -0.729669 -56.083749 -6.538141 17.948223 58.438149 -4.299102 -3.953308 6.616582 -3.477145 -15.114339 0.000000 0.000000 0.000000 4.328445 -30.870881 -2.019456 -29.190781 -11.887208 -21.769780 58.897192 1.254165 0.145695 -5.745383 -2.165672 13.131223 0.000000 0.000000 0.000000 10.874441 -13.705286 4.694961 11.954090 -31.311223 10.552530 16.661519 2.419065 -4.043013 11.040185 2.106805 -4.353643 0.000000 0.000000 0.000000 4.541272 4.811944 -2.383658 -2.292727 1.844032 0.984798 0.000000 0.000000 0.000000 10.382481 3.315217 -5.342631 -0.115227 -4.813483 -11.548009 -0.287157 -8.673171 -47.522240 2.684126 -54.675842 2.018732 0.000000 0.000000 0.000000 12.376596 7.637355 -1.808004 -0.027735 14.235316 9.520386 -7.092900 -8.742643 44.252075 -9.633535 47.850629 16.305285 0.000000 0.000000 0.000000 
8.162025 73.345299 -8.324505 0.000000 0.000000 0.000000 -10.850152 -55.861952 -0.885401 -57.327629 -7.221663 18.279687 60.483750 -4.143795 -4.345867 8.285184 -3.228150 -15.681337 0.000000 0.000000 0.000000 2.528761 -31.013956 -3.123104 -31.481633 -11.263867 -22.614032 61.365397 2.234190 -0.016136 -4.945883 -1.239127 13.780990 0.000000 0.000000 0.000000 11.019140 -14.120567 4.802033 16.304539 -32.414572 13.005805 16.944395 1.811909 -4.371771 11.340902 1.607827 -4.612628 0.000000 0.000000 0.000000 4.654998 4.497975 -2.429751 -2.091399 1.918508 1.010782 0.000000 0.000000 0.000000 10.722306 2.561231 -5.551107 -0.233071 -6.301159 -12.405314 -3.218680 -11.603217 -47.689938 2.473094 -56.790991 1.827807 0.000000 0.000000 0.000000 12.406259 7.405049 -1.712792 0.148632 14.638637 9.135039 -10.790165 -7.944114 42.182664 -11.971177 51.094337 17.379978 0.000000 0.000000 0.000000 
